<svg width="80" height="80" viewBox="0 0 80 80" fill="none" xmlns="http://www.w3.org/2000/svg">
<rect x="2" y="2" width="76" height="76" rx="38" stroke="#FF5050" stroke-opacity="0.5" stroke-width="4"/>
<path d="M23.4142 27.2612C22.6332 26.4801 22.6332 25.2138 23.4142 24.4328L24.1213 23.7257C24.9024 22.9446 26.1687 22.9446 26.9497 23.7257L55.9411 52.717C56.7222 53.4981 56.7222 54.7644 55.9411 55.5455L55.234 56.2526C54.453 57.0336 53.1866 57.0336 52.4056 56.2526L23.4142 27.2612Z" fill="#FF5050"/>
<path d="M52.9334 23.4142C53.7145 22.6332 54.9808 22.6332 55.7619 23.4142L56.469 24.1213C57.25 24.9024 57.25 26.1687 56.469 26.9497L27.4776 55.9411C26.6966 56.7222 25.4302 56.7222 24.6492 55.9411L23.9421 55.234C23.161 54.453 23.161 53.1866 23.9421 52.4056L52.9334 23.4142Z" fill="#FF5050"/>
</svg>
