<svg width="191" height="191" viewBox="0 0 191 191" fill="none" xmlns="http://www.w3.org/2000/svg">
<circle cx="95.5" cy="95.5" r="91.5" stroke="#6594A8" stroke-opacity="0.5" stroke-width="8"/>
<path d="M114.887 50.0229L117.873 47.361L114.887 50.0229ZM120.333 84.7968L116.804 82.9145L120.333 84.7968ZM72 71.8062C72 66.4089 73.4288 61.1641 76.0653 56.7384L69.1924 52.644C65.7929 58.3505 64 65.0177 64 71.8062L72 71.8062ZM76.0653 56.7384C78.7001 52.3155 82.3998 48.9428 86.6405 46.9726L83.2698 39.7174C77.473 42.4105 72.5935 46.9349 69.1924 52.644L76.0653 56.7384ZM86.6405 46.9726C90.8726 45.0064 95.4973 44.5018 99.9531 45.496L101.695 37.6879C95.4953 36.3047 89.0751 37.0203 83.2698 39.7174L86.6405 46.9726ZM99.9531 45.496C104.415 46.4914 108.584 48.9637 111.901 52.6849L117.873 47.361C113.508 42.4655 107.889 39.0698 101.695 37.6879L99.9531 45.496ZM111.901 52.6849C115.223 56.4106 117.528 61.2097 118.465 66.4947L126.342 65.0977C125.16 58.4311 122.233 52.2519 117.873 47.361L111.901 52.6849ZM118.465 66.4947C119.448 72.0373 119.179 78.4624 116.804 82.9145L123.863 86.6792C127.427 79.9964 127.479 71.5068 126.342 65.0977L118.465 66.4947ZM116.804 82.9145C115.673 85.0353 113.402 87.5219 110.52 89.9487C107.695 92.3267 104.576 94.4027 102.087 95.7604L105.918 102.784C108.872 101.172 112.434 98.7942 115.672 96.0688C118.852 93.392 122.025 90.1256 123.863 86.6792L116.804 82.9145ZM102.087 95.7604C99.3052 97.2778 95.0787 99.7265 91.5309 103.257C87.9525 106.817 84.785 111.767 84.785 118.201H92.785C92.785 114.614 94.5043 111.584 97.1737 108.928C99.8739 106.241 103.256 104.235 105.918 102.784L102.087 95.7604ZM92.785 136.017V118.201H84.785V136.017H92.785Z" fill="#6594A8"/>
<circle cx="88.7849" cy="144.182" r="5.19623" fill="#6594A8"/>
</svg>
