<svg width="79" height="69" viewBox="0 0 79 69" fill="none" xmlns="http://www.w3.org/2000/svg">
<path d="M40.3683 2.55135L76.3354 65.5039C76.7162 66.1706 76.2349 67 75.4671 67H3.53289C2.76509 67 2.2838 66.1706 2.6646 65.5039L38.6317 2.55135C39.0156 1.87946 39.9844 1.87945 40.3683 2.55135Z" stroke="#EEA236" stroke-opacity="0.5" stroke-width="4"/>
<path d="M39 48H40C41.1046 48 42 47.1046 42 46V25C42 23.8954 41.1046 23 40 23H39C37.8954 23 37 23.8954 37 25V46C37 47.1046 37.8954 48 39 48Z" fill="#EEA236"/>
<path d="M36 55.5C36 57.433 37.567 59 39.5 59C41.433 59 43 57.433 43 55.5C43 53.567 41.433 52 39.5 52C37.567 52 36 53.567 36 55.5Z" fill="#EEA236"/>
</svg>
